<svg width="255" height="250" viewBox="0 0 255 250" fill="none" xmlns="http://www.w3.org/2000/svg">
<path fill-rule="evenodd" clip-rule="evenodd" d="M217.331 135.724V236.657C217.331 243.997 211.325 250 203.988 250H159.779V156.205H94.716V250H50.5071C43.1679 250 37.1644 243.995 37.1644 236.657V135.724H9.4608C5.55745 135.724 2.23023 133.498 0.737059 129.886C-0.74827 126.275 0.044829 122.346 2.8138 119.595L120.605 2.73261C124.273 -0.91087 130.22 -0.91087 133.889 2.73261L251.68 119.595C254.449 122.347 255.25 126.275 253.757 129.886C252.271 133.496 248.936 135.724 245.033 135.724H217.329H217.331Z" fill="black"/>
</svg>
