<svg width="205" height="250" viewBox="0 0 205 250" fill="none" xmlns="http://www.w3.org/2000/svg">
<path d="M170.452 68.1813C170.452 105.837 139.927 136.363 102.271 136.363C64.6156 136.363 34.0898 105.837 34.0898 68.1813C34.0898 30.5258 64.6156 0 102.271 0C139.927 0 170.452 30.5258 170.452 68.1813Z" fill="black"/>
<path d="M147.724 159.092H56.8184C41.7499 159.092 27.2974 165.079 16.6421 175.734C5.98681 186.389 0 200.842 0 215.91C0 224.95 3.59169 233.621 9.98564 240.015C16.3776 246.409 25.0488 250.001 34.0907 250.001H170.453C179.495 250.001 188.166 246.409 194.558 240.015C200.952 233.621 204.544 224.95 204.544 215.91C204.544 200.842 198.557 186.389 187.902 175.734C177.247 165.079 162.794 159.092 147.726 159.092H147.724Z" fill="black"/>
</svg>
